<?xml version="1.0" encoding="utf-8" ?>
<svg baseProfile="full" height="60mm" version="1.1" viewBox="-30 -30 30 30" width="60mm" xmlns="http://www.w3.org/2000/svg" xmlns:ev="http://www.w3.org/2001/xml-events" xmlns:xlink="http://www.w3.org/1999/xlink"><defs /><line stroke="rgb(10%,10%,10%)" x1="-30" x2="30" y1="-30" y2="-30" /><line stroke="rgb(10%,10%,10%)" x1="-30" x2="-30" y1="-30" y2="30" /><path d="M 18.75761107181869,6.025782856941962 L 18.648038308913563,6.813555402176107 L 18.49575758893847,7.565298374655893 L 18.299356068709383,8.305177293216918 L 18.06019805051915,9.030497411445651 L 17.77694680322279,9.74262959166737 L 17.447455691782714,10.442718584583824 L 17.071487133395166,11.128503672307584 L 16.64885296585925,11.797643689749123 L 16.179455188098775,12.447684065635213 L 15.66335723150263,13.076018022930915 L 15.100900358024528,13.679844024514125 L 14.492882371105722,14.256126291363039 L 13.8408143665587,14.801572859790431 L 13.147258597077265,15.31265711774806 L 12.416216701208533,15.785721604602601 L 11.653476071252971,16.21720770214487 L 10.866748128580877,16.604033445463422 L 10.06540333973146,16.94407744287224 L 9.259705849687652,17.236634917722228 L 8.459686383758129,17.482660293513177 L 7.673591970027138,17.68472996503777 L 6.907437184419624,17.84653153438289 L 6.165903524117771,17.97225596981972 L 5.451539451173083,18.06630278650245 L 4.765193398563529,18.132895816196662 L 4.106523913163683,18.175857872290255 L 3.47444316158377,18.198518020867752 L 2.8674514656128474,18.203704957824062 L 2.2838668358061835,18.193786481734964 L 1.7219712927517845,18.170728034775426 L 1.1800978454171007,18.136154741076197 L 0.656677895225863,18.091409206762417 L 0.15026351428694262,18.03760198463072 L -0.3404655576290576,17.975654065401496 L -0.8167037801578818,17.906331916062918 L -1.27952649368103,17.830276032637023 L -1.7298989281205932,17.74802406324648 L -2.1686860542394406,17.660029485904577 L -2.596662422622523,17.5666766928297 L -3.0145215253916637,17.46829318888366 L -3.4228844503471274,17.365159481044024 L -3.822307739187333,17.257517120232386 L -4.213290440599889,17.14557526453132 L -4.596280394468191,17.02951605567538 L -4.971679804607439,16.909499041148166 L -5.339850167186712,16.785664825674402 L -5.701116622930502,16.658138098555643 L -6.055771798595141,16.527030153534838 L -6.404079198498487,16.392440994223193 L -6.746276200788677,16.254461100096023 L -7.082576707542795,16.113172913052548 L -7.4131734917814365,15.968652093320198 L -7.738240279369445,15.820968584083117 L -8.057933598918268,15.670187516908188 L -8.372394428496001,15.516369984301816 L -8.681749664241906,15.359573700860027 L -8.986113432751228,15.199853570693005 L -9.285588266082108,15.037262175844063 L -9.580266155928285,14.871850197790703 L -9.870229501278448,14.703666782078715 L -10.155551962018144,14.532759854584413 L -10.436299229374594,14.359176396411254 L -10.712529722702008,14.182962683323975 L -10.984295220894161,14.004164494776525 L -11.251641435725418,13.822827296634618 L -11.51460853347595,13.638996401238643 L -11.773231610428443,13.452717107852017 L -12.02754112721152,13.264034825947608 L -12.277563306277333,13.072995183696523 L -12.523320496382972,12.879644123411541 L -12.76483150745705,12.68402798560693 L -13.00211191884435,12.486193583065539 L -13.235174363598116,12.286188266087088 L -13.464028791185402,12.084059979958683 L -13.688682710706527,11.879857315516814 L -13.909141416506191,11.6736295535914 L -14.125408197848976,11.465426703983212 L -14.33748453415387,11.255299539549124 L -14.545370277127933,11.043299625913706 L -14.749063820994731,10.829479347238372 L -14.948562261898115,10.613891928411789 L -15.14386154744582,10.396591454007023 L -15.334956617258921,10.177632884321458 L -15.521841535320032,9.957072069152698 L -15.704508055035454,9.734906122609516 L -15.882903187248768,9.510227803898799 L -16.056941950822676,9.28273127016307 L -16.22653991973596,9.052442638773755 L -16.391610561261285,8.819390548761172 L -16.552065268100662,8.583606292023799 L -16.707813391251168,8.34512392017572 L -16.85876227453501,8.10398035429253 L -17.00481729101758,7.860215497652598 L -17.14588188154445,7.613872351546361 L -17.281857595635287,7.36499713426976 L -17.412644134980336,7.113639403346813 L -17.538139399801036,6.859852181108501 L -17.658239538334282,6.603692083654863 L -17.772838999725824,6.345219453318048 L -17.88183059061702,6.084498494658185 L -17.985105535727193,5.821597414070732 L -18.082553542751125,5.5565885630679865 L -18.17406287189138,5.289548585249831 L -18.25952041037932,5.02055856705735 L -18.338811752334006,4.749704192287361 L -18.411821284337744,4.477075900423799 L -18.478432277122355,4.202769048801596 L -18.538526983769366,3.926884078577314 L -18.591986744853365,3.649526684513458 L -18.638692100979714,3.3708079885575373 L -18.67852291317999,3.090844717158742 L -18.71135849164906,2.8097593822656064 L -18.737077733337475,2.527680465931196 L -18.75555926893283,2.244742608431487 L -18.76668161977688,1.961086799763855 L -18.770323365303245,1.676860574384806 L -18.766363321597282,1.392218209011241 L -18.754680731700905,1.10732092327373 L -18.7351554683253,0.8223370829898329 L -18.70766824964663,0.537442405775451 L -18.67210086889037,0.25282016867515456 L -18.628336438449164,-0.031338582544051974 L -18.57625964928726,-0.3148348228567732 L -18.515757046428416,-0.5974613366601833 L -18.44671732136511,-0.8790025061830509 L -18.369031622219055,-1.1592341002345758 L -18.282593882530104,-1.4379230639628053 L -18.1873011696496,-1.7148273102911258 L -18.083054053584533,-1.98969551397112 L -17.969756997373825,-2.2622669090625243 L -17.847318769921447,-2.53227109096592 L -17.715652882410108,-2.799427824067286 L -17.574678049295432,-3.0634468563708515 L -17.4243186750689,-3.3240277424680666 L -17.264505367899414,-3.5808596764884095 L -17.09517548136616,-3.8336213368089904 L -16.916273685497565,-4.0819807445298 L -16.727752568421845,-4.325595137954167 L -16.52957326994846,-4.564110865610392 L -16.32170614844775,-4.79716330067252 L -16.104131482525027,-5.024376779992291 L -15.876840208920992,-5.245364571448897 L -15.639834698310956,-5.45972887375928 L -15.393129570697646,-5.667060853543879 L -15.136752552084513,-5.866940725206064 L -14.87074537452078,-6.058937879931616 L -14.595164721498062,-6.24261107124941 L -14.310083221003762,-6.417508665805432 L -14.015590488746952,-6.583168969497098 L -13.711794224306423,-6.739120640977877 L -13.398821363363059,-6.884883206783719 L -13.07681928944805,-7.019967695104626 L -12.745957109162216,-7.143877408670434 L -12.406426995546049,-7.256108861338786 L -12.058445604581255,-7.356152908377089 L -11.702255570911028,-7.443496106767309 L -11.338127089644804,-7.51762235008011 L -10.966359591923272,-7.578014832478363 L -10.587283523211635,-7.624158408992013 L -10.201262234250677,-7.6555424347098615 L -9.80869399525534,-7.671664184881532 L -9.410014144931132,-7.6720329814595 L -9.005697385282133,-7.656175180575101 L -8.596260231635814,-7.623640209904151 L -8.182263623382397,-7.574007885697743 L -7.764315692702051,-7.506897285529355 L -7.343074674144584,-7.4219775029503445 L -6.919251913136651,-7.318980659803723 L -6.493614891807144,-7.197717592097792 L -6.066990127926959,-7.058096640852664 L -5.640265708061208,-6.900145944397384 L -5.2143930697204555,-6.724039502707486 L -4.790688708440707,-6.5301541571707435 L -4.370515788478122,-6.319048729464168 L -3.95485849094048,-6.091450664030113 L -3.5447448827657793,-5.848337043827605 L -3.141237800087425,-5.590968512992106 L -2.7454183614109864,-5.32091686038394 L -2.3583610934074644,-5.040079756160457 L -1.9810997101411862,-4.7506748488974155 L -1.6145841052094285,-4.455205699381898 L -1.2596314294806712,-4.156394729036432 L -0.9168767757291105,-3.8570838733190396 L -0.5867310234781025,-3.560111085856991 L -0.26935368392172965,-3.2681779248890512 L 0.0353535291567324,-2.9837272198545666 L 0.3277307883486893,-2.7088482955787683 L 0.6083249648950888,-2.445220781013753 L 0.8778417563361485,-2.194099231746856 L 1.137093043393393,-1.9563329372120375 L 1.3869465346096836,-1.7324106070268135 L 1.6282825645116814,-1.5225185729560877 L 1.6321793299949556,-1.5235135476285127 L 1.6470791741969473,-1.5273181038495585 L 1.6731560837318193,-1.5339765525795857 L 1.710414920170943,-1.5434904817055752 L 1.7587908046842786,-1.555842804815554 L 1.8183680827769804,-1.5710554207200058 L 1.8891458091705866,-1.589131194071666 L 1.9710439427579134,-1.610039047938872 L 2.064128833854679,-1.6338018649072534 L 2.168328205492597,-1.6604144076681728 L 2.283805199683999,-1.689893526733492 L 2.4103836817779785,-1.7222268821543683 L 2.5480787380830874,-1.7573872434334645 L 2.6936105328645814,-1.7945444951642706 L 2.839473141377506,-1.8317890839524527 L 2.9854190035563564,-1.8690404870208583 L 3.131133775502019,-1.9062562619400856 L 3.2769591845979233,-1.9434943657932777 L 3.4229405168234495,-1.9807629144030834 L 3.568761461001837,-2.018017749790568 L 3.714480200540108,-2.0552128690268034 L 3.8603586449649354,-2.0924681104058074 L 4.006337641266971,-2.129740434097881 L 4.152066516272977,-2.166938057912221 L 4.29783877802605,-2.2041681517417144 L 4.443766047774127,-2.241417145374445 L 4.589661292891175,-2.278682425200069 L 4.735373004796306,-2.3158911069309616 L 4.881200588932278,-2.3531250775360686 L 5.027133533435209,-2.3904001806260817 L 5.172905814064964,-2.4276089247104338 L 5.318770252755269,-2.4648469322318265 L 5.464567402174812,-2.502081696740337 L 5.610455505769985,-2.539328469229332 L 5.7563449340992845,-2.576591479849532 L 5.90212155589431,-2.6138162018093203 L 6.047932000277313,-2.6510423355070687 L 6.19382064946982,-2.688296703421993 L 6.339758283182946,-2.725544263484995 L 6.4854642857080576,-2.7627568668319995 L 6.631287509147943,-2.799994756091751 L 6.777275163756211,-2.837263373345788 L 6.923090579202191,-2.8745176831607795 L 7.06880675594046,-2.911712975354506 L 7.214685203454811,-2.9489684945256434 L 7.360659020867883,-2.98624088969878 L 7.506383578120283,-3.0234374683700747 L 7.652166499270172,-3.0606684806400155 L 7.798085030898629,-3.097916028020217 L 7.943970920443152,-3.1351770897165157 L 8.089714892027448,-3.172397315330831 L 8.235526787011981,-3.2096250213519593 L 8.381446207977199,-3.246895562917465 L 8.527213427950642,-3.2841047164057944 L 8.673109608515965,-3.321348764225209 L 8.818891233294757,-3.3585817695509155 L 8.964761213440212,-3.3958253405168897 L 9.1106925531281,-3.43309692734263 L 9.256455825924252,-3.470319465739216 L 9.402254748058017,-3.5075407239836958 L 9.548163587511198,-3.544803112317534 L 9.694094735923223,-3.582047755760808 L 9.839793899895419,-3.6192574352695974 L 9.985618751164342,-3.656495354323109 L 10.131605817014137,-3.6937629660866094 L 10.277416341656174,-3.7310163894854673 L 10.42313188260141,-3.7682124278270708 L 10.569009749262136,-3.805467977157763 L 10.714976932514375,-3.842740183508587 L 10.860696240235448,-3.879936092235649 L 11.006495141766063,-3.91716887030927 L 11.15240274245729,-3.9544149079003352 L 11.298277168256607,-3.991671314378471 L 11.444058068717212,-4.028903793408885 L 11.589853781301844,-4.066125338053923 L 11.735758687797865,-4.103390615520472 L 11.881571046305485,-4.140612606212029 L 12.027449218877955,-4.1778507920547145 L 12.173216089609795,-4.21508191583519 L 12.319067603383523,-4.25232263896876 L 12.465037689750005,-4.289601240029457 L 12.61078956202952,-4.32682239445759 L 12.756578756771027,-4.364039670221681 L 12.90250212459372,-4.401308232528493 L 13.048427969780903,-4.4385508119923935 L 13.194122069320166,-4.475757915261737 L 13.339947488785267,-4.512995737740662 L 13.48593265696196,-4.550261839553576 L 13.631738391517615,-4.587513845737794 L 13.777460312462946,-4.624713399268649 L 13.923332820502623,-4.661966763290882 L 14.06929168713258,-4.6992383063515515 L 14.215004217501168,-4.736433768532254 L 14.360824886932267,-4.773669338262133 L 14.506719714674642,-4.810913849133875 L 14.652580408245605,-4.848165279171804 L 14.79840207781946,-4.885410319099025 L 14.94418164303784,-4.922626060682041 L 15.09007146435351,-4.9598855490369775 L 15.235925769865165,-4.997120364205571 L 15.381788588736942,-5.034352976546664 L 15.527541948122579,-5.071582128066761 L 15.673389250458705,-5.108822201747265 L 15.819379903922101,-5.146104369947373 L 15.965122281335667,-5.183324785299965 L 16.110903911889057,-5.220539135442606 L 16.2568365184772,-5.257812028112525 L 16.40275767063628,-5.295053277968433 L 16.548448210684693,-5.33225823951646 L 16.694274353508618,-5.369495980387284 L 16.840255953864744,-5.4067601450688185 L 16.986056445052345,-5.444010069705033 L 17.131791384319296,-5.481215555086255 L 17.277654929223736,-5.518465062661061 L 17.423603672370266,-5.5557352880857955 L 17.56930731794772,-5.592930335870398 L 17.7151558119803,-5.630169898990405 L 17.860543832925206,-5.667287112543793 L 17.99751831857759,-5.702268454143457 L 18.12334038212523,-5.734408074579122 L 18.23789171526582,-5.76364808507848 L 18.34139945578636,-5.790083575754986 L 18.433712172944574,-5.813649686329114 L 18.514817576686042,-5.834356127961549 L 18.584755223009545,-5.852216674249567 L 18.643561987568102,-5.867232221048939 L 18.691202836100466,-5.879397528695607 L 18.72764582791715,-5.888702884601592 L 18.752946672219313,-5.89516321645241 L 18.767074311900352,-5.898770604572398 L 18.73757253050789,-6.201828919566271 L 18.62117687715376,-6.964722143997049 L 18.45996405721282,-7.714310443219379 L 18.25489995154055,-8.451490983299617 L 18.007234724262094,-9.173780472621996 L 17.71475586579366,-9.883682271871463 L 17.37598709726293,-10.58109348111791 L 16.990698326542812,-11.263739965808863 L 16.558715376017354,-11.92926069720329 L 16.079965615246838,-12.57517394249856 L 15.554556993616718,-13.1988374140488 L 14.982905478736026,-13.797405593755158 L 14.365928304011899,-14.36779228743702 L 13.70531740597107,-14.90665487871247 L 13.003891389691738,-15.410428853292473 L 12.265985171415835,-15.875453455228765 L 11.497770126809076,-16.298230612294567 L 10.707326475839498,-16.67583015197981 L 9.90427999312157,-17.006381678272966 L 9.098944386012231,-17.289502685433362 L 8.301161279266044,-17.526479401869675 L 7.518583333587403,-17.720184439645408 L 6.757050612165451,-17.874421916581113 L 6.020808806588841,-17.993459959507803 L 5.31202569739346,-18.08168867325407 L 4.631271894674391,-18.1432648306275 L 3.978024463566112,-18.18191648983742 L 3.3510900356597846,-18.200871200606777 L 2.7489171278321716,-18.202861404687525 L 2.1698070727016017,-18.190169470579157 L 1.6120466471578565,-18.16468787549497 L 1.0739857259398629,-18.127980826762453 L 0.5540786678968472,-18.08134073883413 L 0.05090287714941599,-18.025837103112252 L -0.4368363965946491,-17.962357425244164 L -0.9103091520406794,-17.89164088259215 L -1.3705679433131897,-17.814305707432776 L -1.8185571515078838,-17.730871345981768 L -2.255122886650038,-17.64177635401579 L -2.6810227591945006,-17.547392851775857 L -3.0969351128573797,-17.448038218541917 L -3.5034675235706016,-17.343984578829193 L -3.9011644955044753,-17.23546652167719 L -4.290514356534357,-17.122687405331625 L -4.671955395115654,-17.005824525947432 L -5.045881298670046,-16.885033372217748 L -5.412645961366082,-16.760451141339598 L -5.772567729052283,-16.632199656393322 L -6.125933146069879,-16.50038779649934 L -6.4730002635546,-16.365113528884265 L -6.814001562716611,-16.226465614597487 L -7.149146541051256,-16.08452504538193 L -7.478624003472819,-15.939366258391978 L -7.802604095294133,-15.79105816665668 L -8.121240109327726,-15.639665035959236 L -8.434670095044044,-15.485247233591966 L -8.743018294353973,-15.327861869351004 L -9.04639642501834,-15.167563346186721 L -9.344904830296286,-15.00440383425568 L -9.638633510710338,-14.838433680328627 L -9.927663051946137,-14.669701762141091 L -10.21206546100911,-14.498255795831103 L -10.491904921212107,-14.324142603323878 L -10.767238475257852,-14.147408345304914 L -11.038116644494256,-13.96809872465641 L -11.304583991421612,-13.78625916439691 L -11.566679631657614,-13.601934963615737 L -11.824437700852986,-13.415171434239717 L -12.07788778130621,-13.226014021257257 L -12.327055292565632,-13.03450840841931 L -12.571961849728922,-12.84070061128477 L -12.812625592750305,-12.644637059194633 L -13.049061489695262,-12.446364667482634 L -13.281281616535633,-12.245930901081147 L -13.509295415796782,-12.043383830547272 L -13.733109936112054,-11.838772181345986 L -13.952730054518849,-11.632145377143633 L -14.168158683131566,-11.423553577772145 L -14.37939696165311,-11.213047712400627 L -14.586444437036235,-11.000679508422083 L -14.789299231466085,-10.786501516468626 L -14.987958199715113,-10.570567131948913 L -15.182417076822816,-10.35293061339328 L -15.372670616944678,-10.133647097912808 L -15.558712724000777,-9.912772601650921 L -15.740531610926734,-9.690197117590232 L -15.918062120479785,-9.464953153169507 L -16.091219547094386,-9.236896032602688 L -16.25991903999545,-9.00605233499038 L -16.424073648985104,-8.77245122152616 L -16.58359435574514,-8.536124527414682 L -16.738390107017832,-8.297106869284626 L -16.88836784949643,-8.05543575554021 L -17.03343256664723,-7.81115169969212 L -17.173487317699635,-7.564298336815222 L -17.308433279039566,-7.314922543161757 L -17.438169788259085,-7.063074559069165 L -17.56259439111813,-6.808808115188251 L -17.68160289169111,-6.5521805621629525 L -17.795089405971336,-6.293253003770104 L -17.902946419236507,-6.032090433656439 L -18.00506484746561,-5.768761875658824 L -18.101334103137102,-5.503340527826979 L -18.19164216573358,-5.235903910154788 L -18.2758756572961,-4.9665340160640525 L -18.353919923401154,-4.695317467703575 L -18.425659119924855,-4.42234567503582 L -18.490976305995165,-4.14771499875385 L -18.54975354355057,-3.8715269170315914 L -18.601872003926378,-3.5938881960672706 L -18.647212081921072,-3.314911064402497 L -18.685653517822608,-3.034713390986873 L -18.717075527877306,-2.7534188669076025 L -18.741356943715193,-2.471157190704342 L -18.75837636127302,-2.1880642571715745 L -18.768012299769875,-1.9042823495199332 L -18.770143371317214,-1.6199603347379323 L -18.764648461780027,-1.3352538619857786 L -18.751406923509077,-1.050325563791084 L -18.73029878061333,-0.7653452598122339 L -18.701204947458464,-0.4804901628824858 L -18.664007461096002,-0.19594508700092206 L -18.61858972837454,0.08809734309222605 L -18.564836788502685,0.3714364811772164 L -18.502635591854176,0.6538634481367342 L -18.431875295849128,0.935160920395905 L -18.35244757876995,1.2151029188166351 L -18.26424697241693,1.4934545987029004 L -18.167171214480685,1.769972041734805 L -18.061121621648912,2.0444020505885945 L -17.946003484358144,2.316481947276605 L -17.821726484297177,2.5859393761675715 L -17.68820513560244,2.8524921129689176 L -17.54535925095532,3.1158478808653225 L -17.393114433616784,3.3757041753653816 L -17.23140259657665,3.6317480994635964 L -17.06016251005649,3.8836562109277875 L -16.879340378572383,4.131094383784591 L -16.688890448855485,4.373717686299141 L -16.488775649990675,4.6111702780333275 L -16.27896826712377,4.843085328924911 L -16.059450650250636,5.069084963676509 L -15.830215959613039,5.288780235220242 L -15.591268949214623,5.50177113160823 L -15.34262679037122,5.70764662115055 L -15.084319936862517,5.905984741595512 L -14.816393033911964,6.096352739794121 L -14.538905872900173,6.2783072695829745 L -14.251934394240727,6.4513946567592715 L -13.955571740985086,6.615151241659154 L -13.649929365902445,6.76910381176951 L -13.335138195322681,6.912770139126028 L -13.011349853271145,7.045659640139302 L -12.678737949901873,7.167274179107958 L -12.337499439083722,7.277109040958239 L -11.987856050218326,7.374654104388441 L -11.630055800618898,7.459395253233762 L -11.264374595402028,7.5308160724371795 L -10.891117922855237,7.588399885489041 L -10.510622654438716,7.6316322033098825 L -10.123258959491462,7.660003670781398 L -9.729432345512045,7.673013617246221 L -9.329585835430755,7.6701743418590205 L -8.924202292812215,7.651016294710001 L -8.51380690374754,7.615094350324762 L -8.098969819850247,7.561995412205597 L -7.680308957022688,7.491347634209564 L -7.2584929292688924,7.402831595196368 L -6.834244068783632,7.296193811797767 L -6.4083414404323,7.171263010954503 L -5.981623690385903,7.027969591743166 L -5.554991466213923,6.866368656693098 L -5.129415726065949,6.686667519292211 L -4.70634077626666,6.489290706037564 L -4.286990777406326,6.274821080673092 L -3.8723586819516838,6.044033128154091 L -3.4634804808324207,5.797958055155967 L -3.0614242323523486,5.5379168340341165 L -2.6672720188937786,5.265545795138188 L -2.2820932441006088,4.982807878251801 L -1.906908545992402,4.6919816525977405 L -1.5426452917585243,4.395620902365622 L -1.190088053913441,4.096480839570435 L -0.8498300818288884,3.7974130251888925 L -0.5222335514373677,3.501238685090253 L -0.2074062067247615,3.2106167596019475 L 0.09480057749479354,2.9279258299949964 L 0.38477164496062155,2.655176446588687 L 0.6630897288151738,2.3939632060934564 L 0.9304859917176058,2.1454570650038836 L 1.1877873333290792,1.9104310299642426 L 1.4358671579189783,1.6893084343355946 L 1.6282952808832976,1.5225218199663897 L 1.6342658140559072,1.5240463021236694 L 1.651401017464143,1.5284216551808245 L 1.6797141615828766,1.5356509921886543 L 1.7192021838768836,1.5457345660099686 L 1.769818569777473,1.5586591452148912 L 1.831623045693557,1.5744399767644346 L 1.9046459992909428,1.593089223886448 L 1.9887380750974417,1.6145575148081228 L 2.0840739483448347,1.6388956219096666 L 2.1905409363815194,1.6660818091971414 L 2.3082085164438224,1.6961280424629468 L 2.437050823920077,1.729039713315009 L 2.5769473872984827,1.764755302216403 L 2.7227883129788877,1.801996354177085 L 2.8686799962130722,1.8392472538337996 L 3.0145698565832264,1.8764819466125466 L 3.16028852364433,1.9137031033349552 L 3.3061371370912367,1.9509432705975047 L 3.4521317886817675,1.9882207701036636 L 3.5978962004772272,2.0254559755911377 L 3.743645537489688,2.062659434558176 L 3.889557013425871,2.099927157220228 L 4.035506093381424,2.137182528761774 L 4.18120227191736,2.174380791738918 L 4.327008177674883,2.211616064482725 L 4.472965333238981,2.248871213334526 L 4.618801624638812,2.286126944070446 L 4.76454689657566,2.323341750607411 L 4.910376621397083,2.360576591822692 L 5.0563145752943734,2.397850048557446 L 5.202065065083269,2.4350540684248987 L 5.347921049027604,2.472292584544669 L 5.493749332820488,2.5095305909941867 L 5.639602222407452,2.546774030066504 L 5.7855210217448,2.5840453026871772 L 5.931268702979982,2.621255079760794 L 6.077106681141879,2.658492969171137 L 6.2230262927556135,2.69575424602399 L 6.3689073274229875,2.732984849063061 L 6.514617414838161,2.7702035197835757 L 6.660472728077317,2.8074443238307714 L 6.806465446356895,2.8447209552321304 L 6.952224293035321,2.8819559557717644 L 7.097972387010857,2.9191596834104967 L 7.24388285266252,2.956427535077882 L 7.389826313460641,2.9936828599920124 L 7.535519467720097,3.0308801669859773 L 7.681334136182557,3.068116282285414 L 7.827282477864913,3.1053693617761295 L 7.97310946169453,3.1426208190338425 L 8.118884750134828,3.1798465678248817 L 8.264700297569746,3.2170753849323654 L 8.410624086212945,3.2543448494155145 L 8.556420315994806,3.291560303435091 L 8.702257142861175,3.3287937874272266 L 8.84807004425845,3.3660303737731594 L 8.993903025870033,3.40326965793223 L 9.1398657496097,3.440550413388835 L 9.28560064698064,3.477757558096271 L 9.431426575477385,3.5149901753414943 L 9.577368319961135,3.552260259034316 L 9.723242320704792,3.5894875600071967 L 9.868945927945887,3.6267039211908703 L 10.014804721412766,3.6639449576822867 L 10.160795195613165,3.7012201754975753 L 10.306549242905106,3.738454709990651 L 10.452299634336264,3.7756601182887595 L 10.598206308889807,3.812926879802223 L 10.74414282225693,3.8501820666633333 L 10.889832310594237,3.8873788831597293 L 11.035660518663004,3.924616527549639 L 11.18159797395694,3.9618674851600444 L 11.327413422120404,3.9991140438362964 L 11.473223932026276,4.036351788190482 L 11.61902459981281,4.073574454214394 L 11.764933056490538,4.1108391171583225 L 11.910773968097775,4.148066735188518 L 12.05659371243662,4.185295133821043 L 12.20239186747176,4.222530272242889 L 12.348242176662286,4.25977193671819 L 12.49420848899813,4.297054525710707 L 12.639932376258681,4.334259885893427 L 12.78574809784703,4.371488050806587 L 12.93170611334645,4.408765172326445 L 13.0775743754076,4.445989943481905 L 13.22327354897374,4.483204270665645 L 13.369133704382445,4.5204452869943115 L 13.515121101260352,4.557718562187302 L 13.660870609231988,4.594952160786036 L 13.806627571548631,4.632160873589012 L 13.952527909061974,4.6694253652097935 L 14.098455836797466,4.706680093821815 L 14.244153063706626,4.743878410971647 L 14.389987615873327,4.7811168170944445 L 14.535912365695953,4.8183656713125025 L 14.681713773864427,4.855606804087108 L 14.827564091564959,4.892857226707801 L 14.97334969487672,4.930073885307365 L 15.119242034373947,4.967333061154552 L 15.265125443414131,5.004573199555127 L 15.410930335218687,5.041796601459549 L 15.556714899053318,5.079030277486743 L 15.70259045292753,5.116275397370398 L 15.848548751207016,5.153557542756388 L 15.994263450370184,5.190761864380302 L 16.140071255731964,5.22798662803018 L 16.286039806619943,5.265268901006689 L 16.431903090673938,5.302491853884552 L 16.577599705471865,5.339704519505025 L 16.7234602753095,5.37694540852211 L 16.869443325658942,5.4142162605740625 L 17.01518800645379,5.451448270867009 L 17.160956474039583,5.488662072200686 L 17.30684817550514,5.525923182565103 L 17.452765664960314,5.563176922107896 L 17.598499145961473,5.600381281145235 L 17.744315621298277,5.637617163542744 L 17.888852540156268,5.674513238329453 L 18.023534576315534,5.7089135719473445 L 18.14714983708394,5.740488278741418 L 18.25948213342234,5.769161792067743 L 18.360747506100164,5.7950222840127985 L 18.450841156857496,5.818021962240987 L 18.529690342770213,5.838154800169381 L 18.597411720842107,5.855448120679286 L 18.653988089420917,5.869894171424502 L 18.699384063632994,5.8814867086742515 L 18.733598179624433,5.890222728835729 L 18.756666022911126,5.896112933992692 L 18.768558908491638,5.89914967188713 L 18.75761107181869,6.025782856941962" /></svg>